{"title":"Angelo.Tsarouchas.Bigger.Is.Better.2011.DVDRip.XViD-SPRiNTER","uid":6899042,"size":741391932,"categoryP":"video","categoryS":"movies","magnet":"?xt=urn:btih:edb940ab0fd0791d760f98c13baf40497bfc36e7&amp;dn=Angelo.Tsarouchas.Bigger.Is.Better.2011.DVDRip.XViD-SPRiNTER&amp;tr=udp%3A%2F%2Ftracker.openbittorrent.com%3A80&amp;tr=udp%3A%2F%2Fopen.demonii.com%3A1337&amp;tr=udp%3A%2F%2Ftracker.coppersurfer.tk%3A6969&amp;tr=udp%3A%2F%2Fexodus.desync.com%3A6969","seeders":0,"leechers":0,"uploader":"TvTeam","files":5,"time":1324320329,"description":". \n &lt;a href=&quot;\nhttp://www.torrenting.com&quot; rel=&quot;nofollow&quot; target=&quot;_NEW&quot;&gt;\nhttp://www.torrenting.com&lt;/a&gt;          :     Once &amp; For all ;)\n\n\n               www . Torrenting . Com \n\n(((((((((((((= Enjoy No RAR releases =))))))))))))))))))))\n\n\n...................................NFO:....................................\n\n.                                                     \n                                                   \n                                                         \n                                                          \n                                                           \n                                                          \n                                                          \n                                                          \n                                                           \n                                                         \n                                                          \n                                                        \n                                                      \n                                     \n                                                 \n                                                   \n                                             \n                                              \n                                                     \n                                                      \n                                                      \n                                                      \n                                                    \n                                                     \n                                                   \n                                                     \n                                                     \n                                                      \n                                                     \n                                                      \n                                                    \n                 ARTiCHOKE                        \n                                                \n                      \n                                                        \n                                                      \n                                                      \n                                               \n                                          \n                                                   \n                                            \n                                                    \n                                                       \n                                                        \n                                                      \n                                                \n                                                        \n                                                 \n                                              \n                                                  \n                                                \n                                                  \n                                        \n\n      \n                                \n      SPRiNTER proudly presents...     \n                                \n      \n \n Angelo.Tsarouchas.Bigger.Is.Better.2011.DVDRip.XViD-SPRiNTER\n\n Date: 2011.12\n &lt;a href=&quot; http://www.amazon.com/Bigger-Better-Angelo-Tsarouchas/dp/B004K7M75U/&quot; rel=&quot;nofollow&quot; target=&quot;_NEW&quot;&gt; http://www.amazon.com/Bigger-Better-Angelo-Tsarouchas/dp/B004K7M75U/&lt;/a&gt; \n\n \n\n      \n                 \n      Release notes     \n                 \n      \n\n Enjoy!\n\n\n      \n          \n       News      \n          \n      \n\n - Looking for talented xvid-encoders with time &amp; addiction :)\n - Suppliers who can provide pre-retail or retail dvds with decent upload!\n - 50Mbit+ dump providers with 1TB+ free space.\n\n contact us :)\n\n\n      \n           \n     Greetings    \n           \n      \n\n\nNTX FiCO HNR CiNEFiLE AEN HUMANiSM TASTE 0MNiDVD\n\n\n      \n           \n      Details     \n           \n      \n\nFormat/Info                      : Audio Video Interleave\nFile size                        : 696 MiB\nDuration                         : 1h 0mn\nOverall bit rate mode            : Variable\nOverall bit rate                 : 1 619 Kbps\nWriting application              : Nandub v1.0rc2\nWriting library                  : Nandub build 1853/release\n\nVideo\nID                               : 0\nFormat                           : MPEG-4 Visual\nFormat profile                   : Advanced Simple@L5\nFormat settings, BVOP            : No\nFormat settings, QPel            : No\nFormat settings, GMC             : No warppoints\nFormat settings, Matrix          : Default (H.263)\nCodec ID                         : XVID\nCodec ID/Hint                    : XviD\nDuration                         : 1h 0mn\nBit rate                         : 1 465 Kbps\nWidth                            : 576 pixels\nHeight                           : 320 pixels\nDisplay aspect ratio             : 16:9\nFrame rate                       : 23.976 fps\nColor space                      : YUV\nChroma subsampling               : 4:2:0\nBit depth                        : 8 bits\nScan type                        : Progressive\nCompression mode                 : Lossy\nBits/(Pixel*Frame)               : 0.331\nStream size                      : 630 MiB (90%)\nWriting library                  : XviD 61\n\nAudio\nID                               : 1\nFormat                           : MPEG Audio\nFormat version                   : Version 1\nFormat profile                   : Layer 3\nCodec ID                         : 55\nCodec ID/Hint                    : MP3\nDuration                         : 1h 0mn\nBit rate mode                    : Variable\nBit rate                         : 142 Kbps\nChannel(s)                       : 2 channels\nSampling rate                    : 48.0 KHz\nCompression mode                 : Lossy\nStream size                      : 60.9 MiB (9%)\nAlignment                        : Aligned on interleaves\nInterleave, duration             : 24 ms (0.58 video frame)\nInterleave, preload duration     : 128 ms\nWriting library                  : LAME3.89 (alpha)","torrent":{"xt":"urn:btih:edb940ab0fd0791d760f98c13baf40497bfc36e7","amp;dn":"Angelo.Tsarouchas.Bigger.Is.Better.2011.DVDRip.XViD-SPRiNTER","amp;tr":["udp%3A%2F%2Ftracker.openbittorrent.com%3A80","udp%3A%2F%2Fopen.demonii.com%3A1337","udp%3A%2F%2Ftracker.coppersurfer.tk%3A6969","udp%3A%2F%2Fexodus.desync.com%3A6969"],"infoHash":"edb940ab0fd0791d760f98c13baf40497bfc36e7","infoHashBuffer":{"type":"Buffer","data":[237,185,64,171,15,208,121,29,118,15,152,193,59,175,64,73,123,252,54,231]},"announce":[],"urlList":[]}}